<?xml version="1.0" encoding="utf-8"?>
<!-- Generator: Adobe Illustrator 21.0.0, SVG Export Plug-In . SVG Version: 6.00 Build 0)  -->
<svg version="1.1" id="Layer_1" xmlns="http://www.w3.org/2000/svg" xmlns:xlink="http://www.w3.org/1999/xlink" x="0px" y="0px"
	 viewBox="0 0 512 512" style="enable-background:new 0 0 512 512;" xml:space="preserve">
<style type="text/css">
	.st0{fill:#6A6E7C;}
</style>
<g>
	<g>
		<path class="st0" d="M165,279.1c-51,0-92.4-41.5-92.4-92.4s41.5-92.4,92.4-92.4s92.4,41.5,92.4,92.4S216,279.1,165,279.1z
			 M165,113c-40.7,0-73.7,33-73.7,73.7s33,73.7,73.7,73.7s73.7-33,73.7-73.7S205.7,113,165,113z"/>
		<path class="st0" d="M320.7,434.8c-5.1,0-9.3-4.2-9.3-9.3c0-80.7-65.6-146.3-146.3-146.3S18.7,344.7,18.7,425.4
			c0,5.1-4.2,9.3-9.3,9.3S0,430.5,0,425.4c0-91,74-165,165-165s165,74,165,165C330,430.5,325.9,434.8,320.7,434.8z"/>
	</g>
	<path class="st0" d="M358.5,234.8c-48,0-87.1-39.1-87.1-87.1s39.1-87.1,87.1-87.1s87.1,39.1,87.1,87.1S406.5,234.8,358.5,234.8z
		 M358.5,78.3c-38.3,0-69.4,31.1-69.4,69.4s31.1,69.4,69.4,69.4s69.4-31.1,69.4-69.4S396.8,78.3,358.5,78.3z"/>
	<path class="st0" d="M358.5,217.1c-53.9,0-101.5,27.6-129.4,69.5c6.8-0.6,13.4,0.5,17.9,5.2c25.1-34.5,65.8-57,111.7-57
		c76,0,137.8,61.8,137.8,137.8c0,4.9,3.9,8.8,8.8,8.8s8.8-4,8.8-8.9C514,286.9,444.3,217.1,358.5,217.1z"/>
</g>
</svg>
